# xmcd
#
# Track frame offsets:
#	4500
#	9000
#	13500
#	18000
#	22500
#	27000
#	31500
#	36000
#	40500
#	45000
#	49500
#
# Disc length: 3753 seconds
#
# Revision: 0
# Processed by: cddbd v1.4PL0 Copyright (c) Steve Scherf et al.
# Submitted via: EasyCDDAExtractor 5.0.4.1
#
DISCID=510e6d0b
DTITLE=Bluespumpm - Bluespumpm Live With Friends
DYEAR=1991
DGENRE=Blues
TTITLE0=Wuffi Blues
TTITLE1=It's a shame
TTITLE2=Crazy Mood
TTITLE3=Our Home
TTITLE4=First Meeting
TTITLE5=Tribut für'n Helmut
TTITLE6=Song
TTITLE7=Oh Baby
TTITLE8=Zenit
TTITLE9=My Baby Is Crying
TTITLE10=Last Boogie
EXTD=
EXTT0=J. Cermak\nrec Sep. 1988 Innsbruck\n"Zappa" Johann Cermak - harp\nFritz 
EXTT0=Glatzl - git\nW. Frosch - bass\nThomas Schwebisch - flute\nAndi Weiß - d
EXTT0=rums
EXTT1=F. Frank\nrec Jan 1982 Salzburg\n"Bongo" Franz Frank - voc, git\n"Zappa"
EXTT1=Johann cermak - git\nWolfgang Frosch - bass\nDieter Thoma - drums\nFrit
EXTT1=z Glatzl - git\nHannes Treiber - piano
EXTT2=W. Frosch\nrec Jan 1982 Linz\n"Zappa" Johann Cermak - voc, harp\n"Bongo"
EXTT2=Franz Frank - git\nWolfgang Frosch - bass\nDieter Thoma - drums\nThomas
EXTT2=Schwebisch - congas\nHannes Treiber - synth\nFritz Glatzl - voc
EXTT3=J. Cermak\nrec Sep 1988 Innsbruck\n"Zappa" Johann Cermak - git, voc\nWol
EXTT3=fgang Frosch - bass\nFritz Glatzl - git\nThomas Schwebisch - sax\nAndi W
EXTT3=eiß - drums
EXTT4=J. Cermak\nrec Jan 1982 Krems\n"Zappa" Johann Cermak - git\n"Bongo" Fran
EXTT4=z Frank - drums\nWolfgang Frosch - bass\nDieter Thoma - piano\nFritz Gla
EXTT4=tzl - git\nWilli Anger - congas\n
EXTT5=F. Frank\nRec Jan 1982 Linz\n"Zapp" Johann Cermak - Tröti\n"Bongo" Franz
EXTT5=Frank - git\nWolfgang Frosch - bass\nDieter Thoma - drums
EXTT6=J. Cermak\nrec Jan 1982 Salzburg\n"Zappa" Johann Cermak - voc, git, harp
EXTT6=\n"Bongo" Franz Frank - bass\nDieter Thoma - drums\nFritz Glatzl - git\n
EXTT6=Hannes Treiber - piano\nManfred Hauer - harp\nWilli Langer - congas
EXTT7=F Glatzl\nrec Jan 1982 Linz\n"Zappa" Johann Cermak - harp\n"Bongo" Franz
EXTT7=Frank - git\nWolfgang Frosch - bass\nDieter Thoma - drums\nFritz Glatzl
EXTT7=voc, git\nHannes Treiber - piano\nManfred Hauer - sax\nThomas Schwebi
EXTT7=sch - flute
EXTT8=G. Friedrich - H. Treiber - W. Lange - T. Schwebisch - F. Frank - J. Cer
EXTT8=mak\nrec Jan 1982 Krems\nHannes Treiber - synth\nWilli Langer - bass\nGu
EXTT8=nter Friedrich - drums\nThomas Schwebisch - congas\n"Bongo" Franz Frank 
EXTT8=git\n"Zappa" Johann Cermak - harp
EXTT9=G. Loiblsberger - J. Cermak\nrec Jan 1982 Salzburg\n"Zappa" Johann Cerma
EXTT9=k - voc, git\n"Bongo" Franz Frank - git\nWolfgang Frosch - bass\nDieter 
EXTT9=Thoma - drums
EXTT10=F. Frank - J. Cermak\nrec Jan 1982 Krems\n"Zappa" Johann Cermak - harp,
EXTT10=voc\n"Bongo" Franz Frank - git\nWolfgang Frosch - bass\nDieter Thoma -
EXTT10=drums
PLAYORDER=
